<?xml version="1.0" encoding="utf-8"?>
<svg width="1024" height="1024" viewBox="0 0 1024 1024" version="1.2" baseProfile="tiny-ps" xmlns="http://www.w3.org/2000/svg">
  <title>avatar</title>
  <g>
    <path d="M 641.01 769.01 L 640.50 896.50 L 512.92 896.75 C442.75,896.89 385.04,896.71 384.67,896.34 C384.30,895.97 384.00,867.17 384.00,832.34 L 384.00 769.01 L 320.25 768.76 L 256.50 768.50 L 256.24 704.25 L 255.99 640.00 L 385.00 640.00 L 385.00 768.01 L 512.25 767.75 L 639.50 767.50 L 639.76 703.75 L 640.01 640.00 L 769.01 640.00 L 768.76 704.25 L 768.50 768.50 ZM 0.00 513.01 L 0.00 384.01 L 63.75 383.76 L 127.50 383.50 L 128.01 256.00 L 257.00 256.00 L 257.00 384.00 L 385.01 384.00 L 384.50 512.50 L 256.50 512.50 L 256.24 448.75 L 255.99 385.00 L 129.01 385.00 L 128.50 512.50 L 64.25 512.76 L 0.00 513.01 ZM 1024.00 384.00 L 1024.00 513.01 L 960.25 512.76 L 896.50 512.50 L 896.24 448.75 L 895.99 385.00 L 769.01 385.00 L 768.76 448.75 L 768.50 512.50 L 640.50 512.50 L 640.24 448.26 L 639.99 384.01 L 703.74 383.76 L 767.50 383.50 L 767.76 319.75 L 768.01 256.00 L 897.00 256.00 L 897.00 384.00 L 1024.00 384.00 Z" fill="rgb(0,0,0)" />
    <path d="M 0.00 0.00 L 128.00 0.00 L 128.00 128.00 L 0.00 128.00 ZM 1024.00 0.00 L 1024.00 128.00 L 896.00 128.00 L 896.00 0.00 ZM 1024.00 1024.00 L 896.00 1024.00 L 896.00 896.00 L 1024.00 896.00 ZM 0.00 1024.00 L 0.00 895.99 L 63.75 896.24 L 127.50 896.50 L 128.01 1024.00 Z" fill="rgb(211,170,0)" />
    <path d="M 127.76 960.25 L 127.50 896.50 L 63.75 896.24 L 0.00 895.99 L -0.00 704.50 L -0.00 513.01 L 64.25 512.76 L 128.50 512.50 L 128.76 448.75 L 129.01 385.00 L 192.50 385.00 L 255.99 385.00 L 256.24 448.75 L 256.50 512.50 L 320.50 512.50 L 384.50 512.50 L 384.76 448.25 L 385.01 384.00 L 321.01 384.00 L 257.00 384.00 L 257.00 320.00 L 257.00 256.00 L 192.51 256.00 L 128.01 256.00 L 127.76 319.75 L 127.50 383.50 L 63.75 383.76 L 0.00 384.01 L 0.00 256.01 L 0.00 128.00 L 64.00 128.00 L 128.00 128.00 L 128.00 64.00 L 128.00 0.00 L 512.00 0.00 L 896.00 0.00 L 896.00 64.00 L 896.00 128.00 L 960.00 128.00 L 1024.00 128.00 L 1024.00 256.00 L 1024.00 384.00 L 960.50 384.00 L 897.00 384.00 L 897.00 320.00 L 897.00 256.00 L 832.51 256.00 L 768.01 256.00 L 767.76 319.75 L 767.50 383.50 L 703.74 383.76 L 639.99 384.01 L 640.24 448.26 L 640.50 512.50 L 704.50 512.50 L 768.50 512.50 L 768.76 448.75 L 769.01 385.00 L 832.50 385.00 L 895.99 385.00 L 896.24 448.75 L 896.50 512.50 L 960.25 512.76 L 1024.00 513.01 L 1024.00 704.51 L 1024.00 896.00 L 960.00 896.00 L 896.00 896.00 L 896.00 960.00 L 896.00 1024.00 L 512.01 1024.00 L 128.01 1024.00 L 127.76 960.25 ZM 640.76 832.76 L 641.01 769.01 L 704.76 768.76 L 768.50 768.50 L 768.76 704.25 L 769.01 640.00 L 704.51 640.00 L 640.01 640.00 L 639.76 703.75 L 639.50 767.50 L 512.25 767.75 L 385.00 768.01 L 385.00 704.00 L 385.00 640.00 L 320.49 640.00 L 255.99 640.00 L 256.24 704.25 L 256.50 768.50 L 320.25 768.76 L 384.00 769.01 L 384.00 832.34 C384.00,867.17 384.30,895.97 384.67,896.34 C385.04,896.71 442.75,896.89 512.92,896.75 L 640.50 896.50 L 640.76 832.76 Z" fill="rgb(242,194,0)" />
  </g>
</svg>